<?xml version="1.0" encoding="UTF-8" standalone="no"?>
<!-- Created with Inkscape (http://www.inkscape.org/) -->

<svg
   xmlns:dc="http://purl.org/dc/elements/1.1/"
   xmlns:cc="http://creativecommons.org/ns#"
   xmlns:rdf="http://www.w3.org/1999/02/22-rdf-syntax-ns#"
   xmlns:svg="http://www.w3.org/2000/svg"
   xmlns="http://www.w3.org/2000/svg"
   xmlns:sodipodi="http://sodipodi.sourceforge.net/DTD/sodipodi-0.dtd"
   xmlns:inkscape="http://www.inkscape.org/namespaces/inkscape"
   width="1000"
   height="1000"
   viewBox="0 0 1000 1000"
   id="svg2"
   version="1.1"
   inkscape:version="0.91 r13725"
   sodipodi:docname="OCicon.svg"
   inkscape:export-filename="C:\Users\Jan-Lukas_2\Desktop\oc_icon.png"
   inkscape:export-xdpi="46.080002"
   inkscape:export-ydpi="46.080002">
  <defs
     id="defs4" />
  <sodipodi:namedview
     id="base"
     pagecolor="#ffffff"
     bordercolor="#666666"
     borderopacity="1.0"
     inkscape:pageopacity="0.0"
     inkscape:pageshadow="2"
     inkscape:zoom="0.35"
     inkscape:cx="-63.04273"
     inkscape:cy="327.07472"
     inkscape:document-units="px"
     inkscape:current-layer="layer1"
     showgrid="false"
     units="px"
     inkscape:window-width="1280"
     inkscape:window-height="957"
     inkscape:window-x="-9"
     inkscape:window-y="-9"
     inkscape:window-maximized="1" />
  <metadata
     id="metadata7">
    <rdf:RDF>
      <cc:Work
         rdf:about="">
        <dc:format>image/svg+xml</dc:format>
        <dc:type
           rdf:resource="http://purl.org/dc/dcmitype/StillImage" />
        <dc:title></dc:title>
      </cc:Work>
    </rdf:RDF>
  </metadata>
  <g
     inkscape:label="Ebene 1"
     inkscape:groupmode="layer"
     id="layer1"
     transform="translate(0,-52.362161)">
    <g
       id="g4180"
       style="fill:#448aff;fill-opacity:1"
       transform="matrix(1.1,0,0,1.1,-49.999999,-55.236217)">
      <path
         inkscape:connector-curvature="0"
         d="m 499.99997,325.61397 0,113.37408 151.1655,-151.16544 -151.1655,-151.16543 0,113.37408 A 302.33088,302.33088 0 0 0 197.6691,552.36213 c 0,59.33244 17.384,114.50783 46.86125,160.9912 l 55.17539,-55.17539 C 282.69962,626.81112 273.25178,590.15349 273.25178,552.36213 A 226.74816,226.74816 0 0 1 499.99994,325.61397 m 255.46967,65.75697 -55.17539,55.17539 c 16.6282,31.74474 26.45397,68.02444 26.45397,105.8158 A 226.74816,226.74816 0 0 1 499.99994,779.11029 l 0,-113.37408 -151.16543,151.16544 151.16544,151.16551 0,-113.37415 A 302.33088,302.33088 0 0 0 802.33088,552.36213 c 0,-59.33242 -17.38401,-114.50781 -46.86127,-160.99119 z"
         id="path4149"
         style="fill:#448aff;fill-opacity:1" />
      <path
         inkscape:connector-curvature="0"
         d="m 392.47143,541.36216 c -22.7,-5.9 -30,-12 -30,-21.5 0,-10.9 10.1,-18.5 27,-18.5 17.8,0 24.4,8.5 25,21 l 22.1,0 c -0.7,-17.2 -11.2,-33 -32.1,-38.1 l 0,-21.9 -30,0 0,21.6 c -19.4,4.2 -35,16.8 -35,36.1 0,23.1 19.1,34.6 47,41.3 25,6 30,14.8 30,24.1 0,6.9 -4.9,17.9 -27,17.9 -20.6,0 -28.7,-9.2 -30,-21 l -21.8,0 c 1.2,21.9 17.6,34.2 36.8,38.3 l 0,21.7 30,0 0,-21.5 c 19.5,-3.5 35,-15 35,-35.5 0,-28.4 -24.3,-38 -47,-44 z"
         id="path4160"
         style="fill:#448aff;fill-opacity:1" />
      <path
         inkscape:connector-curvature="0"
         d="m 535.69286,542.36216 -0.7,10 0.7,10 102.8,0 -8.5,20 -88.3,0 c 11.3,23.6 35.4,40 63.3,40 22.3,0 42.2,-10.4 55,-26.7 l 0,27.9 c -15,11.8 -34.3,18.8 -55,18.8 -39.2,0 -72.5,-25 -85,-60 l -35,0 10,-20 20.5,0 -0.5,-10 0.5,-10 -30.5,0 10,-20 25,0 c 12.5,-35 45.8,-60 85,-60 25,0 48,10.4 64.3,27.1 l -8.6,20.4 c -12.8,-16.7 -33,-27.5 -55.7,-27.5 -27.9,0 -52,16.4 -63.3,40 l 113.7,0 -8.5,20 -111.2,0 z"
         id="path4171"
         style="fill:#448aff;fill-opacity:1" />
    </g>
  </g>
</svg>
